<svg
  xmlns="http://www.w3.org/2000/svg"
  xmlns:xlink="http://www.w3.org/1999/xlink"
  width="15px" height="33px">
  <path fill-rule="evenodd" fill="rgb(255, 255, 255)"
        d="M5.665,0.370 L14.515,0.370 C14.770,0.370 14.932,0.645 14.807,0.868 L8.030,11.913 C7.905,12.136 8.066,12.411 8.322,12.411 L13.707,12.411 C13.980,12.411 14.138,12.719 13.979,12.941 L2.040,32.160 C1.824,32.461 1.352,32.241 1.444,31.882 L4.488,18.857 C4.542,18.645 4.382,18.439 4.164,18.439 L0.425,18.439 C0.207,18.439 0.047,18.233 0.101,18.021 L5.341,0.622 C5.378,0.473 5.512,0.370 5.665,0.370 Z"/>
</svg>
