<svg
  xmlns="http://www.w3.org/2000/svg"
  xmlns:xlink="http://www.w3.org/1999/xlink"
  width="30px" height="27px">
  <path fill-rule="evenodd"  opacity="0.502" fill="rgb(223, 78, 78)"
        d="M13.702,25.675 C10.622,23.471 0.577,15.833 0.617,10.046 C0.663,3.441 5.007,-0.015 9.273,-0.015 C11.506,-0.015 13.607,0.908 15.267,2.529 C16.917,0.967 19.010,0.079 21.246,0.079 C25.507,0.079 29.844,3.486 29.888,9.997 C29.928,15.744 19.912,23.443 16.841,25.666 L15.275,26.800 L13.702,25.675 ZM15.248,7.221 C12.154,0.003 3.363,1.687 3.305,10.065 C3.271,14.908 15.266,23.489 15.266,23.489 C15.266,23.489 27.235,14.825 27.201,10.015 C27.143,1.617 18.198,0.291 15.248,7.221 Z"/>
</svg>
